<svg width="104" height="36" viewBox="0 0 104 36" fill="none" xmlns="http://www.w3.org/2000/svg">
<path d="M50.2832 8.93359H52.832V19.1484C52.832 20.112 52.6172 20.929 52.1875 21.5996C51.7643 22.2767 51.1719 22.7878 50.4102 23.1328C49.6484 23.4844 48.763 23.6602 47.7539 23.6602C47.3112 23.6602 46.8424 23.6016 46.3477 23.4844C45.8594 23.3672 45.3906 23.1849 44.9414 22.9375C44.4987 22.6901 44.1276 22.3776 43.8281 22L45.0684 20.3398C45.3939 20.7174 45.7715 21.0104 46.2012 21.2188C46.6309 21.4336 47.1061 21.541 47.627 21.541C48.1348 21.541 48.5645 21.4466 48.916 21.2578C49.2676 21.0755 49.5378 20.8053 49.7266 20.4473C49.9154 20.0957 50.0098 19.6693 50.0098 19.168V11.375L50.2832 8.93359ZM43.1738 14.3438V14.1387C43.1738 13.3314 43.2715 12.599 43.4668 11.9414C43.6686 11.2773 43.9518 10.7077 44.3164 10.2324C44.6875 9.75716 45.1367 9.38932 45.6641 9.12891C46.1914 8.86849 46.7871 8.73828 47.4512 8.73828C48.1543 8.73828 48.7435 8.86849 49.2188 9.12891C49.694 9.38932 50.0846 9.76042 50.3906 10.2422C50.6966 10.7174 50.9342 11.2806 51.1035 11.9316C51.2793 12.5762 51.416 13.2826 51.5137 14.0508V14.5C51.416 15.2357 51.2695 15.9193 51.0742 16.5508C50.8789 17.1823 50.6217 17.7357 50.3027 18.2109C49.9837 18.6797 49.5866 19.0443 49.1113 19.3047C48.6426 19.5651 48.0827 19.6953 47.4316 19.6953C46.7806 19.6953 46.1914 19.5618 45.6641 19.2949C45.1432 19.028 44.6973 18.6536 44.3262 18.1719C43.9551 17.6901 43.6686 17.1237 43.4668 16.4727C43.2715 15.8216 43.1738 15.112 43.1738 14.3438ZM45.9863 14.1387V14.3438C45.9863 14.7799 46.0286 15.1868 46.1133 15.5645C46.1979 15.9421 46.3281 16.2773 46.5039 16.5703C46.6862 16.8568 46.9108 17.0814 47.1777 17.2441C47.4512 17.4004 47.7734 17.4785 48.1445 17.4785C48.6589 17.4785 49.0788 17.3711 49.4043 17.1562C49.7298 16.9349 49.974 16.6322 50.1367 16.248C50.2995 15.8639 50.3939 15.4212 50.4199 14.9199V13.6406C50.4069 13.2305 50.3516 12.8626 50.2539 12.5371C50.1562 12.2051 50.0195 11.9219 49.8438 11.6875C49.668 11.4531 49.4401 11.2708 49.1602 11.1406C48.8802 11.0104 48.5482 10.9453 48.1641 10.9453C47.793 10.9453 47.4707 11.0299 47.1973 11.1992C46.9303 11.362 46.7057 11.5866 46.5234 11.873C46.3477 12.1595 46.2142 12.498 46.123 12.8887C46.0319 13.2728 45.9863 13.6895 45.9863 14.1387ZM54.5703 14.3242V14.1191C54.5703 13.3444 54.681 12.6315 54.9023 11.9805C55.1237 11.3229 55.446 10.7533 55.8691 10.2715C56.2923 9.78971 56.8132 9.41536 57.4316 9.14844C58.0501 8.875 58.7598 8.73828 59.5605 8.73828C60.3613 8.73828 61.0742 8.875 61.6992 9.14844C62.3242 9.41536 62.8483 9.78971 63.2715 10.2715C63.7012 10.7533 64.0267 11.3229 64.248 11.9805C64.4694 12.6315 64.5801 13.3444 64.5801 14.1191V14.3242C64.5801 15.0924 64.4694 15.8053 64.248 16.4629C64.0267 17.1139 63.7012 17.6836 63.2715 18.1719C62.8483 18.6536 62.3275 19.028 61.709 19.2949C61.0905 19.5618 60.3809 19.6953 59.5801 19.6953C58.7793 19.6953 58.0664 19.5618 57.4414 19.2949C56.8229 19.028 56.2988 18.6536 55.8691 18.1719C55.446 17.6836 55.1237 17.1139 54.9023 16.4629C54.681 15.8053 54.5703 15.0924 54.5703 14.3242ZM57.3828 14.1191V14.3242C57.3828 14.7669 57.4219 15.1803 57.5 15.5645C57.5781 15.9486 57.7018 16.2871 57.8711 16.5801C58.0469 16.8665 58.2747 17.0911 58.5547 17.2539C58.8346 17.4167 59.1764 17.498 59.5801 17.498C59.9707 17.498 60.306 17.4167 60.5859 17.2539C60.8659 17.0911 61.0905 16.8665 61.2598 16.5801C61.429 16.2871 61.5527 15.9486 61.6309 15.5645C61.7155 15.1803 61.7578 14.7669 61.7578 14.3242V14.1191C61.7578 13.6895 61.7155 13.2858 61.6309 12.9082C61.5527 12.5241 61.4258 12.1855 61.25 11.8926C61.0807 11.5931 60.8561 11.3587 60.5762 11.1895C60.2962 11.0202 59.9577 10.9355 59.5605 10.9355C59.1634 10.9355 58.8249 11.0202 58.5449 11.1895C58.2715 11.3587 58.0469 11.5931 57.8711 11.8926C57.7018 12.1855 57.5781 12.5241 57.5 12.9082C57.4219 13.2858 57.3828 13.6895 57.3828 14.1191ZM69.1211 11.1211V19.5H66.2988V8.93359H68.9453L69.1211 11.1211ZM68.7305 13.8457H67.9492C67.9492 13.11 68.0371 12.4329 68.2129 11.8145C68.3952 11.1895 68.6589 10.6491 69.0039 10.1934C69.3555 9.73112 69.7884 9.37305 70.3027 9.11914C70.8171 8.86523 71.4128 8.73828 72.0898 8.73828C72.5586 8.73828 72.9883 8.8099 73.3789 8.95312C73.7695 9.08984 74.1048 9.30794 74.3848 9.60742C74.6712 9.90039 74.8926 10.2845 75.0488 10.7598C75.2051 11.2285 75.2832 11.7917 75.2832 12.4492V19.5H72.4707V12.7617C72.4707 12.2799 72.4056 11.9089 72.2754 11.6484C72.1452 11.388 71.9596 11.2057 71.7188 11.1016C71.4844 10.9974 71.2012 10.9453 70.8691 10.9453C70.5046 10.9453 70.1855 11.0202 69.9121 11.1699C69.6452 11.3197 69.4238 11.528 69.248 11.7949C69.0723 12.0553 68.9421 12.3613 68.8574 12.7129C68.7728 13.0645 68.7305 13.4421 68.7305 13.8457ZM75.0195 13.5234L74.0137 13.6504C74.0137 12.9603 74.0983 12.319 74.2676 11.7266C74.4434 11.1341 74.7005 10.6133 75.0391 10.1641C75.3841 9.71484 75.8105 9.36654 76.3184 9.11914C76.8262 8.86523 77.4121 8.73828 78.0762 8.73828C78.584 8.73828 79.0462 8.81315 79.4629 8.96289C79.8796 9.10612 80.2344 9.33724 80.5273 9.65625C80.8268 9.96875 81.0547 10.3789 81.2109 10.8867C81.3737 11.3945 81.4551 12.0163 81.4551 12.752V19.5H78.6328V12.752C78.6328 12.2637 78.5677 11.8926 78.4375 11.6387C78.3138 11.3783 78.1315 11.1992 77.8906 11.1016C77.6562 10.9974 77.3763 10.9453 77.0508 10.9453C76.7122 10.9453 76.416 11.0137 76.1621 11.1504C75.9082 11.2806 75.6966 11.4629 75.5273 11.6973C75.3581 11.9316 75.2311 12.2051 75.1465 12.5176C75.0618 12.8236 75.0195 13.1589 75.0195 13.5234ZM89.3359 17.1172V12.4102C89.3359 12.0716 89.2806 11.7819 89.1699 11.541C89.0592 11.2936 88.8867 11.1016 88.6523 10.9648C88.4245 10.8281 88.1283 10.7598 87.7637 10.7598C87.4512 10.7598 87.181 10.8151 86.9531 10.9258C86.7253 11.0299 86.5495 11.1829 86.4258 11.3848C86.3021 11.5801 86.2402 11.8112 86.2402 12.0781H83.4277C83.4277 11.6289 83.5319 11.2025 83.7402 10.7988C83.9486 10.3952 84.2513 10.0404 84.6484 9.73438C85.0456 9.42188 85.5176 9.17773 86.0645 9.00195C86.6178 8.82617 87.2363 8.73828 87.9199 8.73828C88.7402 8.73828 89.4694 8.875 90.1074 9.14844C90.7454 9.42188 91.2467 9.83203 91.6113 10.3789C91.9824 10.9258 92.168 11.6094 92.168 12.4297V16.9512C92.168 17.5306 92.2038 18.0059 92.2754 18.377C92.347 18.7415 92.4512 19.0605 92.5879 19.334V19.5H89.7461C89.6094 19.2135 89.5052 18.8555 89.4336 18.4258C89.3685 17.9896 89.3359 17.5534 89.3359 17.1172ZM89.707 13.0645L89.7266 14.6562H88.1543C87.7832 14.6562 87.4609 14.6986 87.1875 14.7832C86.9141 14.8678 86.6895 14.9883 86.5137 15.1445C86.3379 15.2943 86.2077 15.4701 86.123 15.6719C86.0449 15.8737 86.0059 16.0951 86.0059 16.3359C86.0059 16.5768 86.0612 16.7949 86.1719 16.9902C86.2826 17.179 86.4421 17.3288 86.6504 17.4395C86.8587 17.5436 87.1029 17.5957 87.3828 17.5957C87.806 17.5957 88.1738 17.5111 88.4863 17.3418C88.7988 17.1725 89.0397 16.9642 89.209 16.7168C89.3848 16.4694 89.4759 16.235 89.4824 16.0137L90.2246 17.2051C90.1204 17.472 89.9772 17.7487 89.7949 18.0352C89.6191 18.3216 89.3945 18.5918 89.1211 18.8457C88.8477 19.0931 88.5189 19.2982 88.1348 19.4609C87.7507 19.6172 87.2949 19.6953 86.7676 19.6953C86.097 19.6953 85.4883 19.5618 84.9414 19.2949C84.401 19.0215 83.9714 18.6471 83.6523 18.1719C83.3398 17.6901 83.1836 17.1432 83.1836 16.5312C83.1836 15.9779 83.2878 15.4863 83.4961 15.0566C83.7044 14.627 84.0104 14.2656 84.4141 13.9727C84.8242 13.6732 85.3353 13.4486 85.9473 13.2988C86.5592 13.1426 87.2689 13.0645 88.0762 13.0645H89.707ZM96.6016 8.93359L98.3496 12.1465L100.146 8.93359H103.145L100.156 14.0996L103.281 19.5H100.273L98.3691 16.1016L96.4648 19.5H93.457L96.582 14.0996L93.5938 8.93359H96.6016Z" fill="#2C383E"/>
<path d="M32.5 0C36.0899 0 39 2.91015 39 6.5V21.5C39 25.0899 36.0899 28 32.5 28H31.3281L31.2256 25.5H32.5L32.7061 25.4951C34.7512 25.3913 36.3913 23.7512 36.4951 21.7061L36.5 21.5V6.5C36.5 4.29086 34.7091 2.5 32.5 2.5H6.5C4.29086 2.5 2.5 4.29086 2.5 6.5V21.5L2.50488 21.7061C2.60865 23.7512 4.2488 25.3913 6.29395 25.4951L6.5 25.5H22.2588L26.5889 28H6.5C2.91015 28 4.0266e-08 25.0899 0 21.5V6.5C2.25497e-07 2.91015 2.91015 8.0532e-09 6.5 0H32.5Z" fill="#00ACD7"/>
<path d="M11.7639 22.94C10.5639 22.94 9.62391 22.5933 8.94391 21.9C8.27724 21.22 7.94391 20.34 7.94391 19.26V17.6C7.94391 17.04 7.87057 16.5867 7.72391 16.24C7.59057 15.88 7.38391 15.62 7.10391 15.46C6.82391 15.3 6.47724 15.22 6.06391 15.22V13.1C6.47724 13.1 6.82391 13.02 7.10391 12.86C7.38391 12.7 7.59057 12.4467 7.72391 12.1C7.87057 11.74 7.94391 11.28 7.94391 10.72V9.06C7.94391 7.98 8.27724 7.1 8.94391 6.42C9.62391 5.72667 10.5639 5.38 11.7639 5.38H12.9439V7.62C12.0506 7.59333 11.3972 7.72 10.9839 8C10.5839 8.26667 10.3839 8.71333 10.3839 9.34V10.9C10.3839 11.8467 10.1572 12.5933 9.70391 13.14C9.25057 13.6733 8.71724 13.9933 8.10391 14.1V14.18C8.73057 14.2867 9.26391 14.6133 9.70391 15.16C10.1572 15.7067 10.3839 16.46 10.3839 17.42V18.96C10.3839 19.6133 10.5839 20.08 10.9839 20.36C11.3972 20.64 12.0506 20.7667 12.9439 20.74V22.94H11.7639Z" fill="#2C383E"/>
<path d="M27.2439 22.94H26.0639V20.74C26.9706 20.7667 27.6239 20.64 28.0239 20.36C28.4239 20.08 28.6239 19.6133 28.6239 18.96V17.42C28.6239 16.46 28.8439 15.7067 29.2839 15.16C29.7372 14.6133 30.2772 14.2867 30.9039 14.18V14.1C30.2906 13.9933 29.7572 13.6733 29.3039 13.14C28.8506 12.5933 28.6239 11.8467 28.6239 10.9V9.34C28.6239 8.71333 28.4239 8.26667 28.0239 8C27.6239 7.72 26.9706 7.59333 26.0639 7.62V5.38H27.2439C28.4572 5.38 29.3972 5.72667 30.0639 6.42C30.7306 7.1 31.0639 7.98 31.0639 9.06V10.72C31.0639 11.28 31.1306 11.74 31.2639 12.1C31.4106 12.4467 31.6239 12.7 31.9039 12.86C32.1839 13.02 32.5306 13.1 32.9439 13.1V15.22C32.5306 15.22 32.1839 15.3 31.9039 15.46C31.6239 15.62 31.4106 15.88 31.2639 16.24C31.1306 16.5867 31.0639 17.04 31.0639 17.6V19.26C31.0639 20.34 30.7306 21.22 30.0639 21.9C29.3972 22.5933 28.4572 22.94 27.2439 22.94Z" fill="#2C383E"/>
<path d="M14.5293 19.5C14.4226 19.5 14.3266 19.4627 14.2413 19.388C14.1666 19.3133 14.1293 19.2173 14.1293 19.1V8.7C14.1293 8.58267 14.1666 8.48667 14.2413 8.412C14.3266 8.33733 14.4226 8.3 14.5293 8.3H16.0173C16.1773 8.3 16.2946 8.34267 16.3693 8.428C16.4546 8.51333 16.5133 8.57733 16.5453 8.62L19.4893 14.044L22.4653 8.62C22.4866 8.57733 22.5346 8.51333 22.6093 8.428C22.6946 8.34267 22.8173 8.3 22.9773 8.3H24.4653C24.5826 8.3 24.6786 8.33733 24.7533 8.412C24.828 8.48667 24.8653 8.58267 24.8653 8.7V19.1C24.8653 19.2173 24.828 19.3133 24.7533 19.388C24.6786 19.4627 24.5826 19.5 24.4653 19.5H22.8333C22.7266 19.5 22.636 19.4627 22.5613 19.388C22.4866 19.3133 22.4493 19.2173 22.4493 19.1V12.636L20.4173 16.444C20.364 16.54 20.2946 16.6253 20.2093 16.7C20.124 16.7747 20.012 16.812 19.8733 16.812H19.1213C18.9826 16.812 18.8706 16.7747 18.7853 16.7C18.7 16.6253 18.6306 16.54 18.5773 16.444L16.5453 12.636V19.1C16.5453 19.2173 16.508 19.3133 16.4333 19.388C16.3586 19.4627 16.268 19.5 16.1613 19.5H14.5293Z" fill="#00ACD7"/>
<mask id="mask0_55_4" style="mask-type:alpha" maskUnits="userSpaceOnUse" x="11" y="25" width="26" height="11">
<rect x="11.5" y="25.5" width="25" height="10" fill="#D9D9D9"/>
</mask>
<g mask="url(#mask0_55_4)">
<path d="M33.3539 21.0919L33.1508 29.8751L33.0395 34.6974L29.1625 31.8253L24.0121 28.0089L21.5912 26.216L23.4604 24.4816L30.7885 30.0001L30.9223 17.5587L33.4916 15.1779L33.3539 21.0919Z" fill="#00ACD7"/>
</g>
</svg>
